<svg xmlns="http://www.w3.org/2000/svg" xmlns:xlink="http://www.w3.org/1999/xlink" width="39" height="45" viewBox="0 0 39 45">
  <defs>
    <filter id="Icon_map-bus-station" x="0" y="0" width="39" height="45" filterUnits="userSpaceOnUse">
      <feOffset input="SourceAlpha"/>
      <feGaussianBlur stdDeviation="1.5" result="blur"/>
      <feFlood flood-opacity="0.349"/>
      <feComposite operator="in" in2="blur"/>
      <feComposite in="SourceGraphic"/>
    </filter>
    <clipPath id="clip-path">
      <path id="f" d="M21.24,14.99H2.94a1.01,1.01,0,0,1-.97-1.03A1.333,1.333,0,0,1,2,13.68l.97-7.14c.08-.46.48-.55.96-.55H20.25c.47,0,.87.08.95.55l.97,7.27a.852.852,0,0,1,.03.23.96.96,0,0,1-.96.96h-.01ZM20.51,23a1.911,1.911,0,1,1,1.86-1.96v.04a1.88,1.88,0,0,1-1.86,1.91h0ZM3.65,23a1.91,1.91,0,1,1,1.87-1.95v.04A1.874,1.874,0,0,1,3.66,23H3.65ZM22.98,4.54c-.33-1.69-1.31-2.37-2.9-3.05A25.309,25.309,0,0,0,12.04,0,25.482,25.482,0,0,0,3.98,1.49C2.39,2.17,1.43,2.85,1.1,4.54L0,13.94V27H1.72v1.2c0,2.4,2.86,2.4,2.86,0V27H18.87v1.2a1.717,1.717,0,0,0,3.43.15V27.01h1.71V13.94l-1.03-9.4h0Z" fill="none"/>
    </clipPath>
  </defs>
  <g id="그룹_252" data-name="그룹 252" transform="translate(-362.5 -348.5)">
    <g transform="matrix(1, 0, 0, 1, 362.5, 348.5)" filter="url(#Icon_map-bus-station)">
      <g id="Icon_map-bus-station-2" data-name="Icon map-bus-station" transform="translate(4.62 7.48)" fill="#fff">
        <path d="M 23.45142936706543 31.52304077148438 C 21.71740341186523 31.52304077148438 20.38689041137695 30.25234603881836 20.24896621704102 28.52112007141113 L 8.941325187683105 28.52112007141113 C 8.886223793029785 29.32673454284668 8.606564521789551 30.03085899353027 8.12423038482666 30.57142066955566 C 7.58459997177124 31.17619132995605 6.818680286407471 31.52304077148438 6.022860050201416 31.52304077148438 C 5.22704029083252 31.52304077148438 4.461120128631592 31.17619132995605 3.92149019241333 30.57142066955566 C 3.439156055450439 30.03085899353027 3.159496545791626 29.32673454284668 3.104394912719727 28.52112007141113 L 2.880000114440918 28.52112007141113 L 1.380000114440918 28.52112007141113 L 1.380000114440918 27.02112007141113 L 1.380000114440918 13.96216106414795 L 1.380000114440918 13.87507057189941 L 1.390080094337463 13.78856086730957 L 2.485510110855103 4.38714075088501 L 2.492240190505981 4.329400539398193 L 2.50341010093689 4.272360801696777 C 3.002590179443359 1.724320769309998 4.706680297851562 0.7996407151222229 6.26476001739502 0.1329407393932343 C 8.092010498046875 -0.6450792551040649 12.00459003448486 -1.476959228515625 14.92057037353516 -1.476959228515625 C 17.82151031494141 -1.476959228515625 21.72064971923828 -0.644859254360199 23.54232025146484 0.1323007494211197 C 25.10921096801758 0.8019407391548157 26.82199096679688 1.728780746459961 27.32413101196289 4.269960880279541 L 27.336669921875 4.333450794219971 L 27.34370040893555 4.397780895233154 L 28.37112045288086 13.79920101165771 L 28.38000106811523 13.8804407119751 L 28.38000106811523 13.96216106414795 L 28.38000106811523 27.02112007141113 L 28.38000106811523 28.52112007141113 L 26.88000106811523 28.52112007141113 L 26.65388488769531 28.52112007141113 C 26.51595878601074 30.25234603881836 25.18544769287109 31.52304077148438 23.45142936706543 31.52304077148438 Z" stroke="none"/>
        <path d="M 14.92057037353516 0.023040771484375 C 12.14171981811523 0.023040771484375 8.444000244140625 0.8353614807128906 6.854860305786133 1.511991500854492 C 5.265140533447266 2.192230224609375 4.306289672851562 2.871860504150391 3.975429534912109 4.560741424560547 L 2.879999160766602 13.96216011047363 L 2.879999160766602 27.02112007141113 L 4.594289779663086 27.02112007141113 L 4.594289779663086 28.22187995910645 C 4.594289779663086 30.62342071533203 7.45142936706543 30.62342071533203 7.45142936706543 28.22187995910645 L 7.45142936706543 27.02112007141113 L 21.73714065551758 27.02112007141113 L 21.73714065551758 28.22187995910645 C 21.73714065551758 30.62342071533203 25.16571044921875 30.62342071533203 25.16571044921875 28.22187995910645 L 25.16571044921875 27.02112007141113 L 26.88000106811523 27.02112007141113 L 26.88000106811523 13.96216011047363 L 25.85256958007812 4.560741424560547 C 25.51885986328125 2.871860504150391 24.54400062561035 2.191631317138672 22.95372009277344 1.511991500854492 C 21.36629104614258 0.8347606658935547 17.68743133544922 0.023040771484375 14.92057037353516 0.023040771484375 M 14.92057037353516 -2.976959228515625 C 18.10544013977051 -2.976959228515625 22.18120002746582 -2.079177856445312 24.13092994689941 -1.24738883972168 C 26.09346008300781 -0.4086589813232422 28.18082046508789 0.8675308227539062 28.79566955566406 3.979209899902344 L 28.82074928283691 4.106170654296875 L 29.88000106811523 13.79872131347656 L 29.88000106811523 30.02112007141113 L 27.84425735473633 30.02112007141113 C 27.59303283691406 30.68463706970215 27.19897079467773 31.27838325500488 26.67765045166016 31.76526069641113 C 25.80917930603027 32.57635116577148 24.66341972351074 33.02302932739258 23.45141983032227 33.02302932739258 C 22.23942947387695 33.02302932739258 21.09366035461426 32.57633972167969 20.22520065307617 31.76526069641113 C 19.70388031005859 31.27838325500488 19.30981636047363 30.68463706970215 19.05859375 30.02112007141113 L 10.15521430969238 30.02112007141113 C 9.951969146728516 30.5970401763916 9.64605712890625 31.11887168884277 9.243440628051758 31.5700798034668 C 8.419530868530273 32.49345016479492 7.24567985534668 33.02302932739258 6.022859573364258 33.02302932739258 C 4.800039291381836 33.02302932739258 3.626180648803711 32.49345016479492 2.802270889282227 31.5700798034668 C 2.399658203125 31.11886596679688 2.09375 30.5970401763916 1.890504837036133 30.02112007141113 L -0.1200008392333984 30.02112007141113 L -0.1200008392333984 13.78797149658203 L 1.009040832519531 4.09807014465332 L 1.031389236450195 3.983991622924805 C 1.642499923706055 0.8645706176757812 3.721540451049805 -0.410369873046875 5.67466926574707 -1.246118545532227 L 5.679609298706055 -1.248218536376953 C 7.632219314575195 -2.079620361328125 11.72050094604492 -2.976959228515625 14.92057037353516 -2.976959228515625 Z" stroke="none" fill="#fff"/>
      </g>
    </g>
    <g id="b" transform="translate(370 356)">
      <g id="c">
        <path id="d" d="M21.24,14.99H2.94a1.01,1.01,0,0,1-.97-1.03A1.333,1.333,0,0,1,2,13.68l.97-7.14c.08-.46.48-.55.96-.55H20.25c.47,0,.87.08.95.55l.97,7.27a.852.852,0,0,1,.03.23.96.96,0,0,1-.96.96h-.01ZM20.51,23a1.911,1.911,0,1,1,1.86-1.96v.04a1.88,1.88,0,0,1-1.86,1.91h0ZM3.65,23a1.91,1.91,0,1,1,1.87-1.95v.04A1.874,1.874,0,0,1,3.66,23H3.65ZM22.98,4.54c-.33-1.69-1.31-2.37-2.9-3.05A25.309,25.309,0,0,0,12.04,0,25.482,25.482,0,0,0,3.98,1.49C2.39,2.17,1.43,2.85,1.1,4.54L0,13.94V27H1.72v1.2c0,2.4,2.86,2.4,2.86,0V27H18.87v1.2a1.717,1.717,0,0,0,3.43.15V27.01h1.71V13.94l-1.03-9.4h0Z" fill="#c82800"/>
        <g id="그룹_253" data-name="그룹 253" clip-path="url(#clip-path)">
          <rect id="사각형_68" data-name="사각형 68" width="10.8" height="8.75" transform="translate(6.6 -2.77)"/>
        </g>
      </g>
    </g>
  </g>
</svg>
